<?xml version="1.0" encoding="iso-8859-1"?>
<!-- Generator: Adobe Illustrator 16.0.0, SVG Export Plug-In . SVG Version: 6.00 Build 0)  -->
<!DOCTYPE svg PUBLIC "-//W3C//DTD SVG 1.1//EN" "http://www.w3.org/Graphics/SVG/1.1/DTD/svg11.dtd">
<svg version="1.1" id="Capa_1" xmlns="http://www.w3.org/2000/svg" xmlns:xlink="http://www.w3.org/1999/xlink" x="0px" y="0px"
	 width="303.92px" height="303.92px" viewBox="0 0 303.92 303.92" style="enable-background:new 0 0 303.92 303.92;"
	 xml:space="preserve">
<g>
	<g>
		<path d="M4.922,105.704l143.857,61.572c1.015,0.443,2.099,0.654,3.185,0.654s2.165-0.222,3.185-0.654l143.854-61.572
			c3.037-1.303,4.983-4.311,4.914-7.615c-0.068-3.306-2.136-6.233-5.221-7.403L154.838,35.973c-1.859-0.709-3.905-0.709-5.759,0
			L5.226,90.685c-3.085,1.17-5.152,4.103-5.224,7.403C-0.066,101.387,1.882,104.406,4.922,105.704z M151.959,52.209l122.233,46.488
			l-122.233,52.32L29.724,98.698L151.959,52.209z"/>
		<path d="M4.922,140.743l147.037,62.936l147.034-62.936c4.118-1.761,6.022-6.523,4.261-10.634
			c-1.756-4.103-6.502-6.03-10.631-4.261L151.959,186.06L11.29,125.848c-4.116-1.764-8.873,0.153-10.634,4.261
			C-1.105,134.225,0.807,138.982,4.922,140.743z"/>
		<path d="M4.922,173.14l147.037,62.938l147.034-62.938c4.118-1.761,6.022-6.518,4.261-10.631
			c-1.756-4.103-6.502-6.033-10.631-4.261L151.959,218.46L11.29,158.249c-4.116-1.762-8.873,0.152-10.634,4.261
			C-1.105,166.623,0.807,171.379,4.922,173.14z"/>
		<path d="M4.922,205.541l147.037,62.938l147.034-62.938c4.118-1.762,6.022-6.519,4.261-10.632
			c-1.756-4.103-6.502-6.021-10.631-4.261L151.959,250.86L11.29,190.648c-4.116-1.761-8.873,0.153-10.634,4.261
			C-1.105,199.022,0.807,203.779,4.922,205.541z"/>
	</g>
</g>
<g>
</g>
<g>
</g>
<g>
</g>
<g>
</g>
<g>
</g>
<g>
</g>
<g>
</g>
<g>
</g>
<g>
</g>
<g>
</g>
<g>
</g>
<g>
</g>
<g>
</g>
<g>
</g>
<g>
</g>
</svg>
